<?xml version="1.0" encoding="UTF-8"?>
<svg xmlns="http://www.w3.org/2000/svg" xmlns:xlink="http://www.w3.org/1999/xlink" width="2400" height="2400" viewBox="0 0 2400 2400">
<rect x="-240" y="-240" width="2880" height="2880" fill="rgb(100%, 100%, 100%)" fill-opacity="1"/>
<path fill-rule="evenodd" fill="rgb(0%, 0%, 0%)" fill-opacity="1" d="M 1194.140625 1200 L 1122.609375 1128.46875 L 952.734375 1157.601562 L 705.46875 1200 L 952.734375 1242.398438 L 1122.609375 1271.519531 Z M 1183.859375 1200 L 748.484375 1200 L 1120.128906 1136.28125 Z M 1183.859375 1200 "/>
<path fill-rule="evenodd" fill="rgb(0%, 0%, 0%)" fill-opacity="1" d="M 1271.519531 1277.390625 L 1200 1205.859375 L 1128.46875 1277.390625 L 1157.601562 1447.265625 L 1200 1694.53125 L 1242.398438 1447.265625 Z M 1200 1216.140625 L 1200 1651.515625 L 1136.28125 1279.871094 Z M 1200 1216.140625 "/>
<path fill-rule="evenodd" fill="rgb(0%, 0%, 0%)" fill-opacity="1" d="M 1277.390625 1128.46875 L 1205.859375 1200 L 1277.390625 1271.519531 L 1447.269531 1242.398438 L 1694.53125 1200 L 1447.269531 1157.601562 Z M 1216.140625 1200 L 1651.519531 1200 L 1279.871094 1263.71875 Z M 1216.140625 1200 "/>
<path fill-rule="evenodd" fill="rgb(0%, 0%, 0%)" fill-opacity="1" d="M 1128.46875 1122.609375 L 1200 1194.140625 L 1271.519531 1122.609375 L 1242.398438 952.730469 L 1200 705.46875 L 1157.601562 952.730469 Z M 1200 1183.859375 L 1200 748.480469 L 1263.71875 1120.128906 Z M 1200 1183.859375 "/>
<path fill-rule="evenodd" fill="rgb(0%, 0%, 0%)" fill-opacity="1" d="M 1264.929688 1041.148438 C 1272.730469 1044.339844 1280.238281 1048.078125 1287.410156 1052.339844 C 1289.308594 1053.460938 1291.179688 1054.628906 1293.039062 1055.820312 L 1299.410156 1051.320312 L 1467.730469 932.269531 L 1321.320312 1078.679688 C 1331.441406 1088.808594 1340.308594 1100.199219 1347.660156 1112.589844 C 1351.921875 1119.761719 1355.660156 1127.269531 1358.851562 1135.070312 L 1367.238281 1136.5 C 1363.191406 1125.851562 1358.148438 1115.679688 1352.238281 1106.121094 L 1371.761719 1078.519531 L 1493.238281 906.761719 L 1321.480469 1028.238281 L 1293.878906 1047.761719 C 1284.308594 1041.851562 1274.148438 1036.808594 1263.488281 1032.761719 Z M 1112.589844 1347.660156 C 1110.691406 1346.53125 1108.820312 1345.371094 1106.960938 1344.171875 L 1100.589844 1348.679688 L 932.269531 1467.730469 L 1078.679688 1321.320312 C 1068.558594 1311.191406 1059.691406 1299.800781 1052.339844 1287.410156 C 1048.078125 1280.238281 1044.339844 1272.730469 1041.148438 1264.929688 L 1032.761719 1263.488281 C 1036.808594 1274.148438 1041.851562 1284.308594 1047.761719 1293.878906 L 1028.238281 1321.480469 L 906.761719 1493.238281 L 1078.519531 1371.761719 L 1106.121094 1352.238281 C 1115.679688 1358.148438 1125.851562 1363.191406 1136.5 1367.238281 L 1135.070312 1358.851562 C 1127.269531 1355.660156 1119.761719 1351.921875 1112.589844 1347.660156 Z M 1051.320312 1100.589844 L 932.269531 932.269531 L 1078.679688 1078.679688 C 1088.808594 1068.558594 1100.199219 1059.691406 1112.589844 1052.339844 C 1119.761719 1048.078125 1127.269531 1044.339844 1135.070312 1041.148438 L 1136.5 1032.761719 C 1125.851562 1036.808594 1115.679688 1041.851562 1106.121094 1047.761719 L 1078.519531 1028.238281 L 906.761719 906.761719 L 1028.238281 1078.519531 L 1047.761719 1106.121094 C 1041.851562 1115.679688 1036.808594 1125.851562 1032.761719 1136.5 L 1041.148438 1135.070312 C 1044.339844 1127.269531 1048.078125 1119.761719 1052.339844 1112.589844 C 1053.460938 1110.691406 1054.628906 1108.820312 1055.820312 1106.960938 Z M 1287.410156 1347.660156 C 1280.238281 1351.921875 1272.730469 1355.660156 1264.929688 1358.851562 L 1263.488281 1367.238281 C 1274.148438 1363.191406 1284.308594 1358.148438 1293.878906 1352.238281 L 1321.480469 1371.761719 L 1493.238281 1493.238281 L 1371.761719 1321.480469 L 1352.238281 1293.878906 C 1358.148438 1284.308594 1363.191406 1274.148438 1367.238281 1263.488281 L 1358.851562 1264.929688 C 1355.660156 1272.730469 1351.921875 1280.238281 1347.660156 1287.410156 C 1346.53125 1289.308594 1345.371094 1291.179688 1344.179688 1293.039062 L 1348.679688 1299.410156 L 1467.730469 1467.730469 L 1321.320312 1321.320312 C 1311.191406 1331.441406 1299.800781 1340.308594 1287.410156 1347.660156 "/>
<path fill-rule="evenodd" fill="rgb(0%, 0%, 0%)" fill-opacity="1" d="M 861.800781 1156.21875 C 870.296875 1089.949219 897.816406 1029.621094 938.714844 980.898438 L 924.175781 960.351562 C 876.5 1015.171875 844.898438 1084.339844 836.71875 1160.53125 Z M 938.714844 1419.097656 C 897.816406 1370.378906 870.296875 1310.050781 861.800781 1243.769531 L 836.71875 1239.46875 C 844.898438 1315.660156 876.5 1384.828125 924.175781 1439.652344 Z M 1243.769531 1538.195312 L 1239.46875 1563.28125 C 1315.660156 1555.097656 1384.828125 1523.5 1439.648438 1475.824219 L 1419.101562 1461.285156 C 1370.378906 1502.183594 1310.050781 1529.703125 1243.769531 1538.195312 Z M 1156.230469 1538.195312 C 1089.949219 1529.703125 1029.621094 1502.183594 980.902344 1461.285156 L 960.34375 1475.824219 C 1015.171875 1523.5 1084.339844 1555.097656 1160.53125 1563.28125 Z M 1538.199219 1243.769531 C 1529.699219 1310.050781 1502.179688 1370.378906 1461.289062 1419.097656 L 1475.828125 1439.652344 C 1523.5 1384.828125 1555.101562 1315.660156 1563.28125 1239.46875 Z M 1475.828125 960.351562 L 1461.289062 980.898438 C 1502.179688 1029.621094 1529.699219 1089.949219 1538.199219 1156.21875 L 1563.28125 1160.53125 C 1555.101562 1084.339844 1523.5 1015.171875 1475.828125 960.351562 Z M 1243.769531 861.800781 C 1310.050781 870.300781 1370.378906 897.820312 1419.101562 938.710938 L 1439.648438 924.171875 C 1384.828125 876.5 1315.660156 844.898438 1239.46875 836.71875 Z M 960.34375 924.171875 L 980.902344 938.710938 C 1029.621094 897.820312 1089.949219 870.300781 1156.230469 861.800781 L 1160.53125 836.71875 C 1084.339844 844.898438 1015.171875 876.5 960.34375 924.171875 "/>
<path fill-rule="evenodd" fill="rgb(0%, 0%, 0%)" fill-opacity="1" d="M 391.039062 1188.578125 L 674.800781 1188.578125 C 681.082031 1188.578125 686.21875 1193.71875 686.21875 1200 C 686.21875 1206.28125 681.082031 1211.421875 674.800781 1211.421875 L 391.039062 1211.421875 C 384.757812 1211.421875 379.617188 1206.28125 379.617188 1200 C 379.617188 1193.71875 384.757812 1188.578125 391.039062 1188.578125 "/>
<path fill-rule="evenodd" fill="rgb(0%, 0%, 0%)" fill-opacity="1" d="M 1725.199219 1188.578125 L 2008.960938 1188.578125 C 2015.238281 1188.578125 2020.378906 1193.71875 2020.378906 1200 C 2020.378906 1206.28125 2015.238281 1211.421875 2008.960938 1211.421875 L 1725.199219 1211.421875 C 1718.921875 1211.421875 1713.78125 1206.28125 1713.78125 1200 C 1713.78125 1193.71875 1718.921875 1188.578125 1725.199219 1188.578125 "/>
<path fill-rule="evenodd" fill="rgb(0%, 0%, 0%)" fill-opacity="1" d="M 1188.578125 2008.960938 L 1188.578125 1725.199219 C 1188.578125 1718.917969 1193.71875 1713.78125 1200 1713.78125 C 1206.28125 1713.78125 1211.421875 1718.917969 1211.421875 1725.199219 L 1211.421875 2008.960938 C 1211.421875 2015.242188 1206.28125 2020.378906 1200 2020.378906 C 1193.71875 2020.378906 1188.578125 2015.242188 1188.578125 2008.960938 "/>
<path fill-rule="evenodd" fill="rgb(0%, 0%, 0%)" fill-opacity="1" d="M 1188.578125 674.800781 L 1188.578125 391.039062 C 1188.578125 384.761719 1193.71875 379.621094 1200 379.621094 C 1206.28125 379.621094 1211.421875 384.761719 1211.421875 391.039062 L 1211.421875 674.800781 C 1211.421875 681.078125 1206.28125 686.21875 1200 686.21875 C 1193.71875 686.21875 1188.578125 681.078125 1188.578125 674.800781 "/>
<path fill-rule="evenodd" fill="rgb(0%, 0%, 0%)" fill-opacity="1" d="M 589.191406 1147.011719 C 614.558594 850.699219 850.699219 614.558594 1147.011719 589.191406 L 1147.011719 574.46875 C 842.59375 599.921875 599.917969 842.589844 574.472656 1147.011719 L 589.191406 1147.011719 "/>
<path fill-rule="evenodd" fill="rgb(0%, 0%, 0%)" fill-opacity="1" d="M 1147.011719 649.320312 C 883.789062 674.328125 674.332031 883.789062 649.316406 1147.011719 L 661.339844 1147.011719 C 686.273438 890.398438 890.40625 686.269531 1147.011719 661.339844 L 1147.011719 649.320312 "/>
<path fill-rule="evenodd" fill="rgb(0%, 0%, 0%)" fill-opacity="1" d="M 1252.988281 589.191406 C 1549.300781 614.558594 1785.441406 850.699219 1810.808594 1147.011719 L 1825.53125 1147.011719 C 1800.078125 842.589844 1557.410156 599.921875 1252.988281 574.46875 L 1252.988281 589.191406 "/>
<path fill-rule="evenodd" fill="rgb(0%, 0%, 0%)" fill-opacity="1" d="M 1750.679688 1147.011719 C 1725.671875 883.789062 1516.210938 674.328125 1252.988281 649.320312 L 1252.988281 661.339844 C 1509.601562 686.269531 1713.730469 890.398438 1738.660156 1147.011719 L 1750.679688 1147.011719 "/>
<path fill-rule="evenodd" fill="rgb(0%, 0%, 0%)" fill-opacity="1" d="M 1738.660156 1252.988281 C 1713.730469 1509.59375 1509.601562 1713.726562 1252.988281 1738.660156 L 1252.988281 1750.683594 C 1516.210938 1725.667969 1725.671875 1516.210938 1750.679688 1252.988281 L 1738.660156 1252.988281 "/>
<path fill-rule="evenodd" fill="rgb(0%, 0%, 0%)" fill-opacity="1" d="M 1810.808594 1252.988281 C 1785.441406 1549.300781 1549.300781 1785.441406 1252.988281 1810.808594 L 1252.988281 1825.527344 C 1557.410156 1800.082031 1800.078125 1557.40625 1825.53125 1252.988281 L 1810.808594 1252.988281 "/>
<path fill-rule="evenodd" fill="rgb(0%, 0%, 0%)" fill-opacity="1" d="M 1147.011719 1738.660156 C 890.40625 1713.726562 686.273438 1509.59375 661.339844 1252.988281 L 649.316406 1252.988281 C 674.332031 1516.210938 883.789062 1725.667969 1147.011719 1750.683594 L 1147.011719 1738.660156 "/>
<path fill-rule="evenodd" fill="rgb(0%, 0%, 0%)" fill-opacity="1" d="M 1147.011719 1810.808594 C 850.699219 1785.441406 614.558594 1549.300781 589.191406 1252.988281 L 574.472656 1252.988281 C 599.917969 1557.40625 842.59375 1800.082031 1147.011719 1825.527344 L 1147.011719 1810.808594 "/>
</svg>
